:FULLY-SPECIFIED
:FORCE-ALL-JOINTS-BE-3DOF
:DEGREES
951
root 1.15561 15.2773 32.7329 6.73987 -3.3739 364.773
lfemur 7.07316 1.13113 4.08044
ltibia 0.292245 0 0
lfoot -28.6645 -14.3549 0
ltoes -31.5504 0 0
rfemur -31.87 -15.7953 -7.38053
rtibia 49.3028 0 0
rfoot -20.813 4.57953 0
rtoes -42.3745 0 0
lowerback -2.17919 -0.413185 0.657158
upperback -1.4297 -0.571995 -6.80648
thorax -0.32969 -0.326061 -7.47837
lowerneck -6.59049 0.565365 4.56489
upperneck 0.912869 0.294007 3.37872
head 1.39573 0.238042 0.29421
lclavicle -4.13184e-15 -1.96891e-14 0
lhumerus -59.0205 -43.889 112.9
lradius 55.4404 0 0
lwrist 25.1346 0 0
lhand 39.8472 24.7168 0
lfingers 7.12502 0 0
lthumb 62.2608 35.8226 0
rclavicle -4.13184e-15 -1.96891e-14 0
rhumerus 3.58492 -33.8541 -1.95098
rradius 29.0103 0 0
rwrist -15.6872 0 0
rhand -38.3648 -49.5279 0
rfingers 7.12502 0 0
rthumb -11.3897 -799.169 0
952
root 1.14859 15.2682 32.7256 6.70447 -3.51612 364.74
lfemur 7.18746 1.24466 4.15204
ltibia 0.27398 0 0
lfoot -28.7492 -14.2304 0
ltoes -31.6572 0 0
rfemur -32.0334 -15.8426 -7.28829
rtibia 49.462 0 0
rfoot -20.9571 4.71961 0
rtoes -42.2907 0 0
lowerback -2.14562 -0.420153 0.662823
upperback -1.40871 -0.581428 -6.76557
thorax -0.327569 -0.330276 -7.43746
lowerneck -6.57005 0.608845 4.6394
upperneck 0.862503 0.349578 3.38088
head 1.37667 0.264336 0.28398
lclavicle -2.21499e-15 -1.56756e-14 0
lhumerus -58.9803 -43.8834 112.982
lradius 55.3983 0 0
lwrist 25.1254 0 0
lhand 39.7077 24.7342 0
lfingers 7.12502 0 0
lthumb 62.1439 35.9811 0
rclavicle -2.21499e-15 -1.56756e-14 0
rhumerus 3.64057 -33.377 -1.76025
rradius 28.9772 0 0
rwrist -15.5038 0 0
rhand -37.9686 -49.3631 0
rfingers 7.12502 0 0
rthumb -11.0075 -799.021 0
953
root 1.14158 15.259 32.7182 6.66907 -3.65835 364.708
lfemur 7.30177 1.3582 4.22364
ltibia 0.255715 0 0
lfoot -28.8339 -14.1059 0
ltoes -31.7641 0 0
rfemur -32.1967 -15.8899 -7.19606
rtibia 49.6213 0 0
rfoot -21.1012 4.85969 0
rtoes -42.207 0 0
lowerback -2.11205 -0.427121 0.668488
upperback -1.38773 -0.590861 -6.72467
thorax -0.325449 -0.33449 -7.39655
lowerneck -6.54961 0.652325 4.7139
upperneck 0.812136 0.405148 3.38303
head 1.3576 0.290631 0.27375
lclavicle -2.98133e-16 -1.1662e-14 0
lhumerus -58.9402 -43.8779 113.064
lradius 55.3562 0 0
lwrist 25.1163 0 0
lhand 39.5682 24.7516 0
lfingers 7.12502 0 0
lthumb 62.027 36.1396 0
rclavicle -2.98133e-16 -1.1662e-14 0
rhumerus 3.69621 -32.8999 -1.56952
rradius 28.9441 0 0
rwrist -15.3204 0 0
rhand -37.5725 -49.1983 0
rfingers 7.12502 0 0
rthumb -10.6253 -798.873 0
954
root 1.13456 15.2499 32.7109 6.63367 -3.80057 364.675
lfemur 7.41608 1.47174 4.29524
ltibia 0.237449 0 0
lfoot -28.9186 -13.9814 0
ltoes -31.8709 0 0
rfemur -32.3601 -15.9371 -7.10383
rtibia 49.7806 0 0
rfoot -21.2454 4.99977 0
rtoes -42.1232 0 0
lowerback -2.07849 -0.434089 0.674152
upperback -1.36674 -0.600293 -6.68377
thorax -0.323329 -0.338704 -7.35563
lowerneck -6.52916 0.695806 4.7884
upperneck 0.76177 0.460719 3.38519
head 1.33854 0.316925 0.26352
lclavicle 1.61872e-15 -7.64844e-15 0
lhumerus -58.9001 -43.8724 113.147
lradius 55.3141 0 0
lwrist 25.1071 0 0
lhand 39.4287 24.769 0
lfingers 7.12502 0 0
lthumb 61.9101 36.2981 0
rclavicle 1.61872e-15 -7.64844e-15 0
rhumerus 3.75186 -32.4228 -1.37879
rradius 28.911 0 0
rwrist -15.137 0 0
rhand -37.1764 -49.0335 0
rfingers 7.12502 0 0
rthumb -10.2431 -798.726 0
955
root 1.12754 15.2407 32.7035 6.59827 -3.94279 364.643
lfemur 7.53039 1.58528 4.36684
ltibia 0.219184 0 0
lfoot -29.0033 -13.8569 0
ltoes -31.9777 0 0
rfemur -32.5235 -15.9844 -7.01159
rtibia 49.9398 0 0
rfoot -21.3895 5.13985 0
rtoes -42.0395 0 0
lowerback -2.04492 -0.441057 0.679817
upperback -1.34576 -0.609726 -6.64286
thorax -0.321208 -0.342918 -7.31472
lowerneck -6.50872 0.739286 4.86291
upperneck 0.711404 0.51629 3.38734
head 1.31947 0.343219 0.25329
lclavicle 3.53557e-15 -3.63489e-15 0
lhumerus -58.86 -43.8669 113.229
lradius 55.272 0 0
lwrist 25.0979 0 0
lhand 39.2892 24.7864 0
lfingers 7.12502 0 0
lthumb 61.7932 36.4566 0
rclavicle 3.53557e-15 -3.63489e-15 0
rhumerus 3.80751 -31.9457 -1.18806
rradius 28.8779 0 0
rwrist -14.9536 0 0
rhand -36.7803 -48.8687 0
rfingers 7.12502 0 0
rthumb -9.86095 -798.578 0
956
root 1.12052 15.2316 32.6962 6.56287 -4.08501 364.61
lfemur 7.6447 1.69882 4.43844
ltibia 0.200919 0 0
lfoot -29.088 -13.7324 0
ltoes -32.0846 0 0
rfemur -32.6869 -16.0317 -6.91936
rtibia 50.0991 0 0
rfoot -21.5336 5.27993 0
rtoes -41.9557 0 0
lowerback -2.01135 -0.448025 0.685482
upperback -1.32477 -0.619159 -6.60196
thorax -0.319088 -0.347132 -7.27381
lowerneck -6.48828 0.782766 4.93741
upperneck 0.661038 0.571861 3.3895
head 1.30041 0.369513 0.24306
lclavicle 5.45242e-15 3.78671e-16 0
lhumerus -58.8199 -43.8614 113.311
lradius 55.2299 0 0
lwrist 25.0888 0 0
lhand 39.1497 24.8038 0
lfingers 7.12502 0 0
lthumb 61.6763 36.6151 0
rclavicle 5.45242e-15 3.78671e-16 0
rhumerus 3.86316 -31.4686 -0.997335
rradius 28.8448 0 0
rwrist -14.7702 0 0
rhand -36.3842 -48.7039 0
rfingers 7.12502 0 0
rthumb -9.47877 -798.43 0
957
root 1.11351 15.2224 32.6888 6.52748 -4.22724 364.578
lfemur 7.75901 1.81235 4.51005
ltibia 0.182653 0 0
lfoot -29.1728 -13.6079 0
ltoes -32.1914 0 0
rfemur -32.8502 -16.079 -6.82713
rtibia 50.2583 0 0
rfoot -21.6777 5.42 0
rtoes -41.872 0 0
lowerback -1.97779 -0.454992 0.691147
upperback -1.30379 -0.628591 -6.56105
thorax -0.316968 -0.351346 -7.23289
lowerneck -6.46783 0.826247 5.01191
upperneck 0.610671 0.627432 3.39165
head 1.28134 0.395808 0.232831
lclavicle 7.36928e-15 4.39223e-15 0
lhumerus -58.7798 -43.8559 113.393
lradius 55.1877 0 0
lwrist 25.0796 0 0
lhand 39.0102 24.8211 0
lfingers 7.12502 0 0
lthumb 61.5595 36.7736 0
rclavicle 7.36928e-15 4.39223e-15 0
rhumerus 3.9188 -30.9916 -0.806605
rradius 28.8117 0 0
rwrist -14.5869 0 0
rhand -35.9881 -48.5392 0
rfingers 7.12502 0 0
rthumb -9.09658 -798.283 0
958
root 1.10649 15.2133 32.6815 6.49208 -4.36946 364.545
lfemur 7.87332 1.92589 4.58165
ltibia 0.164388 0 0
lfoot -29.2575 -13.4834 0
ltoes -32.2983 0 0
rfemur -33.0136 -16.1263 -6.7349
rtibia 50.4176 0 0
rfoot -21.8218 5.56008 0
rtoes -41.7882 0 0
lowerback -1.94422 -0.46196 0.696812
upperback -1.2828 -0.638024 -6.52015
thorax -0.314848 -0.35556 -7.19198
lowerneck -6.44739 0.869727 5.08641
upperneck 0.560305 0.683003 3.39381
head 1.26228 0.422102 0.222601
lclavicle 9.28613e-15 8.40579e-15 0
lhumerus -58.7397 -43.8504 113.475
lradius 55.1456 0 0
lwrist 25.0705 0 0
lhand 38.8707 24.8385 0
lfingers 7.12502 0 0
lthumb 61.4426 36.9321 0
rclavicle 9.28613e-15 8.40579e-15 0
rhumerus 3.97445 -30.5145 -0.615876
rradius 28.7786 0 0
rwrist -14.4035 0 0
rhand -35.592 -48.3744 0
rfingers 7.12502 0 0
rthumb -8.7144 -798.135 0
959
root 1.09947 15.2041 32.6741 6.45668 -4.51168 364.513
lfemur 7.98763 2.03943 4.65325
ltibia 0.146123 0 0
lfoot -29.3422 -13.3589 0
ltoes -32.4051 0 0
rfemur -33.177 -16.1736 -6.64266
rtibia 50.5768 0 0
rfoot -21.9659 5.70016 0
rtoes -41.7045 0 0
lowerback -1.91065 -0.468928 0.702477
upperback -1.26182 -0.647457 -6.47924
thorax -0.312727 -0.359774 -7.15107
lowerneck -6.42695 0.913207 5.16092
upperneck 0.509939 0.738573 3.39596
head 1.24321 0.448396 0.212371
lclavicle 1.1203e-14 1.24193e-14 0
lhumerus -58.6996 -43.8449 113.557
lradius 55.1035 0 0
lwrist 25.0613 0 0
lhand 38.7312 24.8559 0
lfingers 7.12502 0 0
lthumb 61.3257 37.0906 0
rclavicle 1.1203e-14 1.24193e-14 0
rhumerus 4.0301 -30.0374 -0.425146
rradius 28.7455 0 0
rwrist -14.2201 0 0
rhand -35.1959 -48.2096 0
rfingers 7.12502 0 0
rthumb -8.33222 -797.987 0
960
root 1.09245 15.195 32.6668 6.42128 -4.6539 364.48
lfemur 8.10194 2.15297 4.72485
ltibia 0.127857 0 0
lfoot -29.4269 -13.2344 0
ltoes -32.5119 0 0
rfemur -33.3404 -16.2208 -6.55043
rtibia 50.7361 0 0
rfoot -22.1101 5.84024 0
rtoes -41.6207 0 0
lowerback -1.87709 -0.475896 0.708141
upperback -1.24083 -0.656889 -6.43834
thorax -0.310607 -0.363988 -7.11015
lowerneck -6.4065 0.956688 5.23542
upperneck 0.459573 0.794144 3.39812
head 1.22415 0.47469 0.202141
lclavicle 1.31198e-14 1.64329e-14 0
lhumerus -58.6595 -43.8394 113.64
lradius 55.0614 0 0
lwrist 25.0521 0 0
lhand 38.5917 24.8733 0
lfingers 7.12502 0 0
lthumb 61.2088 37.2491 0
rclavicle 1.31198e-14 1.64329e-14 0
rhumerus 4.08575 -29.5603 -0.234417
rradius 28.7124 0 0
rwrist -14.0367 0 0
rhand -34.7998 -48.0448 0
rfingers 7.12502 0 0
rthumb -7.95003 -797.84 0
961
root 1.08544 15.1858 32.6594 6.38588 -4.79613 364.448
lfemur 8.21625 2.2665 4.79645
ltibia 0.109592 0 0
lfoot -29.5116 -13.1099 0
ltoes -32.6188 0 0
rfemur -33.5037 -16.2681 -6.4582
rtibia 50.8954 0 0
rfoot -22.2542 5.98032 0
rtoes -41.537 0 0
lowerback -1.84352 -0.482864 0.713806
upperback -1.21985 -0.666322 -6.39744
thorax -0.308487 -0.368202 -7.06924
lowerneck -6.38606 1.00017 5.30992
upperneck 0.409206 0.849715 3.40027
head 1.20508 0.500985 0.191911
lclavicle 1.50367e-14 2.04465e-14 0
lhumerus -58.6194 -43.8339 113.722
lradius 55.0193 0 0
lwrist 25.043 0 0
lhand 38.4522 24.8907 0
lfingers 7.12502 0 0
lthumb 61.0919 37.4076 0
rclavicle 1.50367e-14 2.04465e-14 0
rhumerus 4.14139 -29.0832 -0.0436871
rradius 28.6793 0 0
rwrist -13.8533 0 0
rhand -34.4037 -47.88 0
rfingers 7.12502 0 0
rthumb -7.56785 -797.692 0
962
root 1.07842 15.1767 32.6521 6.35048 -4.93835 364.415
lfemur 8.33055 2.38004 4.86805
ltibia 0.0913267 0 0
lfoot -29.5963 -12.9854 0
ltoes -32.7256 0 0
rfemur -33.6671 -16.3154 -6.36596
rtibia 51.0546 0 0
rfoot -22.3983 6.1204 0
rtoes -41.4532 0 0
lowerback -1.80995 -0.489832 0.719471
upperback -1.19886 -0.675755 -6.35653
thorax -0.306366 -0.372417 -7.02833
lowerneck -6.36562 1.04365 5.38443
upperneck 0.35884 0.905286 3.40243
head 1.18602 0.527279 0.181681
lclavicle 1.69535e-14 2.446e-14 0
lhumerus -58.5792 -43.8283 113.804
lradius 54.9772 0 0
lwrist 25.0338 0 0
lhand 38.3127 24.9081 0
lfingers 7.12502 0 0
lthumb 60.975 37.5661 0
rclavicle 1.69535e-14 2.446e-14 0
rhumerus 4.19704 -28.6061 0.147042
rradius 28.6462 0 0
rwrist -13.6699 0 0
rhand -34.0075 -47.7152 0
rfingers 7.12502 0 0
rthumb -7.18567 -797.544 0
963
root 1.0714 15.1675 32.6447 6.31508 -5.08057 364.383
lfemur 8.44486 2.49358 4.93965
ltibia 0.0730613 0 0
lfoot -29.681 -12.8609 0
ltoes -32.8324 0 0
rfemur -33.8305 -16.3627 -6.27373
rtibia 51.2139 0 0
rfoot -22.5424 6.26048 0
rtoes -41.3695 0 0
lowerback -1.77639 -0.4968 0.725136
upperback -1.17788 -0.685187 -6.31563
thorax -0.304246 -0.376631 -6.98741
lowerneck -6.34517 1.08713 5.45893
upperneck 0.308474 0.960857 3.40458
head 1.16695 0.553573 0.171451
lclavicle 1.88704e-14 2.84736e-14 0
lhumerus -58.5391 -43.8228 113.886
lradius 54.9351 0 0
lwrist 25.0246 0 0
lhand 38.1732 24.9255 0
lfingers 7.12502 0 0
lthumb 60.8581 37.7246 0
rclavicle 1.88704e-14 2.84736e-14 0
rhumerus 4.25269 -28.129 0.337772
rradius 28.6131 0 0
rwrist -13.4865 0 0
rhand -33.6114 -47.5504 0
rfingers 7.12502 0 0
rthumb -6.80348 -797.397 0
964
root 1.06438 15.1584 32.6374 6.27968 -5.22279 364.35
lfemur 8.55917 2.60712 5.01126
ltibia 0.054796 0 0
lfoot -29.7658 -12.7364 0
ltoes -32.9393 0 0
rfemur -33.9939 -16.41 -6.1815
rtibia 51.3731 0 0
rfoot -22.6865 6.40055 0
rtoes -41.2857 0 0
lowerback -1.74282 -0.503767 0.730801
upperback -1.15689 -0.69462 -6.27472
thorax -0.302126 -0.380845 -6.9465
lowerneck -6.32473 1.13061 5.53343
upperneck 0.258108 1.01643 3.40674
head 1.14789 0.579867 0.161222
lclavicle 2.07872e-14 3.24871e-14 0
lhumerus -58.499 -43.8173 113.968
lradius 54.8929 0 0
lwrist 25.0155 0 0
lhand 38.0337 24.9428 0
lfingers 7.12502 0 0
lthumb 60.7413 37.8831 0
rclavicle 2.07872e-14 3.24871e-14 0
rhumerus 4.30834 -27.652 0.528501
rradius 28.58 0 0
rwrist -13.3031 0 0
rhand -33.2153 -47.3856 0
rfingers 7.12502 0 0
rthumb -6.4213 -797.249 0
